<?xml version="1.0" encoding="UTF-8" standalone="no"?>
<svg
   xmlns:dc="http://purl.org/dc/elements/1.1/"
   xmlns:cc="http://creativecommons.org/ns#"
   xmlns:rdf="http://www.w3.org/1999/02/22-rdf-syntax-ns#"
   xmlns:svg="http://www.w3.org/2000/svg"
   xmlns="http://www.w3.org/2000/svg"
   xmlns:sodipodi="http://sodipodi.sourceforge.net/DTD/sodipodi-0.dtd"
   xmlns:inkscape="http://www.inkscape.org/namespaces/inkscape"
   width="174pt"
   height="287pt"
   viewBox="0 0 174 287"
   version="1.1"
   id="svg16"
   sodipodi:docname="B_Lab_logo.svg"
   inkscape:version="1.0.2 (e86c870879, 2021-01-15)">
  <metadata
     id="metadata22">
    <rdf:RDF>
      <cc:Work
         rdf:about="">
        <dc:format>image/svg+xml</dc:format>
        <dc:type
           rdf:resource="http://purl.org/dc/dcmitype/StillImage" />
      </cc:Work>
    </rdf:RDF>
  </metadata>
  <defs
     id="defs20" />
  <sodipodi:namedview
     pagecolor="#ffffff"
     bordercolor="#666666"
     borderopacity="1"
     objecttolerance="10"
     gridtolerance="10"
     guidetolerance="10"
     inkscape:pageopacity="0"
     inkscape:pageshadow="2"
     inkscape:window-width="1920"
     inkscape:window-height="1001"
     id="namedview18"
     showgrid="false"
     inkscape:zoom="2.2160279"
     inkscape:cx="97.046435"
     inkscape:cy="197.3823"
     inkscape:window-x="-9"
     inkscape:window-y="-9"
     inkscape:window-maximized="1"
     inkscape:current-layer="svg16" />
  <g
     id="#ffffffff" />
  <g
     id="#1a1818ff">
    <path
       fill="#1a1818"
       opacity="1.00"
       d=" M 79.38 32.40 C 95.58 30.87 112.40 36.51 124.05 47.95 C 132.44 55.82 138.24 66.33 140.50 77.60 C 144.29 95.45 138.86 115.00 126.16 128.14 C 110.61 145.13 84.34 150.62 63.12 141.89 C 47.92 135.87 35.61 122.93 30.46 107.39 C 25.06 91.51 27.04 73.23 36.01 59.02 C 45.24 43.99 61.79 33.78 79.38 32.40 M 75.38 40.54 C 53.80 44.34 36.10 63.92 35.15 85.91 C 34.00 100.52 40.03 115.35 50.84 125.18 C 62.06 135.88 78.57 140.72 93.77 137.67 C 108.58 134.97 121.74 124.97 128.67 111.66 C 133.89 101.91 135.01 90.40 133.22 79.59 C 130.49 65.33 120.97 52.70 108.28 45.75 C 98.36 40.25 86.51 38.41 75.38 40.54 Z"
       id="path3" />
    <path
       fill="#1a1818"
       opacity="1"
       d="m 60.67,56.68 28.32,-0.05 c 5.24,0.11 11.15,0.36 15.16,4.2 5.62,4.88 6.68,13.89 2.83,20.15 -1.55,2.55 -4.06,4.25 -6.32,6.1 3.71,1.8 7.69,3.88 9.55,7.8 3.59,7.64 1.53,17.85 -5.4,22.93 -3.93,2.99 -8.99,3.8 -13.81,3.73 l -30.33,-0.1 V 56.68 m 8.72,7.35 V 84.64 L 88,84.57 c 3.97,-0.25 8.54,-1.06 11,-4.55 2.23,-3.55 2.15,-8.47 -0.03,-12.02 -2.37,-3.55 -7.04,-3.89 -10.91,-4.11 l -18.67,0.14 m 0,27.89 v 22.26 l 17.62,0.2 c 3.59,-0.09 7.4,0.08 10.68,-1.65 6.51,-3.27 7.78,-13.82 1.84,-18.24 C 95.95,91.84 91.25,91.88 87,91.75 Z"
       id="path5"
       sodipodi:nodetypes="cccccccccccccccccccccccc" />
    <path
       fill="#1a1818"
       opacity="1"
       d="m 27.61,154.85 h 10.74 l 0.03,39.94 24.03,0.07 v 9.28 l -34.79,-0.01 z"
       id="path7"
       sodipodi:nodetypes="ccccccc" />
    <path
       fill="#1a1818"
       opacity="1"
       d="m 105.77,154.87 h 9.66 v 17.07 c 3.43,-2.37 7.24,-4.69 11.59,-4.38 7,-0.29 12.69,5.67 14.05,12.19 1.44,7.14 0.89,15.46 -4.23,21.09 -5.71,5.85 -16.08,5.3 -21.67,-0.46 l -0.1,3.69 -9.31,0.07 0.01,-49.27 m 14.73,20.64 c -4.82,2.38 -5.79,8.55 -5.13,13.38 0.35,4.16 3.25,8.53 7.73,8.82 4.16,0.42 7.55,-3.27 8.35,-7.09 0.8,-4.13 0.76,-8.81 -1.65,-12.43 -1.94,-2.95 -6.09,-4.24 -9.3,-2.68 z"
       id="path9"
       sodipodi:nodetypes="cccccccccccccccc" />
    <path
       fill="#1a1818"
       opacity="1.00"
       d=" M 71.09 171.07 C 76.18 167.21 82.99 167.26 89.06 167.83 C 93.42 168.28 98.65 170.54 99.32 175.42 C 100.19 185.00 98.76 194.69 100.27 204.24 C 96.41 204.25 92.32 204.46 88.90 202.34 C 83.48 204.76 77.04 206.08 71.39 203.65 C 64.71 200.72 63.87 189.96 70.04 186.07 C 75.41 182.77 82.13 183.95 87.84 181.71 C 90.12 181.05 89.96 178.43 89.39 176.60 C 88.06 173.97 84.64 174.00 82.12 174.18 C 79.05 174.22 77.68 177.32 76.01 179.36 C 72.91 179.40 69.81 179.34 66.72 179.18 C 67.69 176.28 68.49 172.99 71.09 171.07 M 78.69 189.65 C 75.44 190.69 74.62 195.71 77.60 197.52 C 81.05 199.36 86.13 198.87 88.45 195.47 C 89.84 192.96 89.64 189.99 89.97 187.23 C 86.20 187.98 82.32 188.34 78.69 189.65 Z"
       id="path11" />
    <path
       fill="#1a1818"
       opacity="1"
       d="m 27.58,222.53 114.51,0.04 v 6.85 l -114.51,0.05 z"
       id="path13"
       sodipodi:nodetypes="ccccc" />
  </g>
</svg>
