<svg width="480" height="64" viewBox="0 0 480 64" fill="none" xmlns="http://www.w3.org/2000/svg">
<path d="M17.3717 62.9179H0.42627V23.3021H11.0363V24.8288H17.3717V32.9962H11.0363V54.7505H17.3717V62.9179ZM0.42627 0.937196H17.3717V9.02827H11.0363V20.8596H0.42627V0.937196Z" fill="white"/>
<path d="M31.8811 62.9179H22.4161V23.2258H37.6823L38.6746 30.6299H39.2089L40.1249 23.2258H55.4674V62.9179H46.0024L46.384 26.279H45.7734L41.7278 62.9179H36.1557L32.1101 26.279H31.4995L31.8811 62.9179ZM55.4674 0.937196V20.8596H40.4302L43.1018 0.937196H55.4674ZM22.4161 0.937196H34.7817L37.377 20.8596H22.4161V0.937196Z" fill="white"/>
<path d="M71.4152 62.9179H60.8052V23.5311H71.4152V62.9179ZM60.8052 0.937196H71.4152V20.8596H60.8052V0.937196Z" fill="white"/>
<path d="M81.108 31.4695C79.5814 30.5536 78.4364 29.5104 77.6731 28.34C76.9098 27.1696 76.4518 25.5157 76.2991 23.3785H87.4435C87.5961 23.6838 87.8251 23.9637 88.1304 24.2181C88.4866 24.4725 88.8937 24.727 89.3517 24.9814L95.8399 28.7216C97.6209 29.7394 98.8931 30.9352 99.6564 32.3092C100.42 33.6831 100.801 35.6169 100.801 38.1103V51.0102C100.801 56.557 100.063 59.9918 98.5878 61.3149C97.1629 62.5871 93.8044 63.2232 88.5121 63.2232C83.3216 63.2232 79.9885 62.5617 78.5127 61.2386C77.037 59.7629 76.2991 56.3534 76.2991 51.0102V37.347H86.9855V52.4605C86.9855 54.2416 87.5707 55.1321 88.7411 55.1321C89.7588 55.1321 90.2677 54.2416 90.2677 52.4605V39.3316C90.2677 38.2121 90.115 37.4234 89.8097 36.9654C89.5044 36.5074 88.8683 35.9985 87.9014 35.4387L81.108 31.4695ZM100.801 12.9211V20.8596H90.2677V11.3945C90.2677 9.66436 89.6825 8.79927 88.5121 8.79927C87.9523 8.79927 87.5452 9.00282 87.2908 9.40992C87.0872 9.76613 86.9855 10.4277 86.9855 11.3945V20.8596H76.2991V12.9211C76.2991 7.57798 77.0116 4.19398 78.4364 2.76914C79.9121 1.29341 83.2961 0.555542 88.5884 0.555542C93.7789 0.555542 97.112 1.24252 98.5878 2.61648C100.063 3.99043 100.801 7.42532 100.801 12.9211Z" fill="white"/>
<path d="M110.179 31.4695C108.653 30.5536 107.508 29.5104 106.744 28.34C105.981 27.1696 105.523 25.5157 105.37 23.3785H116.515C116.667 23.6838 116.896 23.9637 117.202 24.2181C117.558 24.4725 117.965 24.727 118.423 24.9814L124.911 28.7216C126.692 29.7394 127.964 30.9352 128.728 32.3092C129.491 33.6831 129.873 35.6169 129.873 38.1103V51.0102C129.873 56.557 129.135 59.9918 127.659 61.3149C126.234 62.5871 122.876 63.2232 117.583 63.2232C112.393 63.2232 109.06 62.5617 107.584 61.2386C106.108 59.7629 105.37 56.3534 105.37 51.0102V37.347H116.057V52.4605C116.057 54.2416 116.642 55.1321 117.812 55.1321C118.83 55.1321 119.339 54.2416 119.339 52.4605V39.3316C119.339 38.2121 119.186 37.4234 118.881 36.9654C118.576 36.5074 117.94 35.9985 116.973 35.4387L110.179 31.4695ZM129.873 12.9211V20.8596H119.339V11.3945C119.339 9.66436 118.754 8.79927 117.583 8.79927C117.024 8.79927 116.617 9.00282 116.362 9.40992C116.159 9.76613 116.057 10.4277 116.057 11.3945V20.8596H105.37V12.9211C105.37 7.57798 106.083 4.19398 107.508 2.76914C108.983 1.29341 112.367 0.555542 117.66 0.555542C122.85 0.555542 126.183 1.24252 127.659 2.61648C129.135 3.99043 129.873 7.42532 129.873 12.9211Z" fill="white"/>
<path d="M145.51 62.9179H134.9V23.5311H145.51V62.9179ZM134.9 0.937196H145.51V20.8596H134.9V0.937196Z" fill="white"/>
<path d="M152.684 61.2386C151.259 59.8137 150.546 56.3788 150.546 50.9339V23.5311H161.08V52.4605C161.08 54.1907 161.665 55.0558 162.836 55.0558C163.446 55.0558 163.853 54.8777 164.057 54.5215C164.311 54.1144 164.439 53.4274 164.439 52.4605V23.5311H175.049V50.9339C175.049 56.328 174.311 59.7629 172.835 61.2386C171.359 62.5617 168.052 63.2232 162.912 63.2232C157.569 63.2232 154.159 62.5617 152.684 61.2386ZM161.08 11.4709V20.8596H150.546V12.9211C150.546 7.42532 151.259 3.99043 152.684 2.61648C154.109 1.24252 157.467 0.555542 162.759 0.555542C168.103 0.555542 171.487 1.26796 172.911 2.69281C174.336 4.11765 175.049 7.52709 175.049 12.9211V20.8596H164.439V11.4709C164.439 9.6898 163.853 8.79927 162.683 8.79927C161.614 8.79927 161.08 9.6898 161.08 11.4709Z" fill="white"/>
<path d="M189.234 62.9179H179.998V23.3785H193.661L195.264 31.8512H195.722L195.645 23.3785H204.729V62.9179H195.34L189.463 31.1642H189.005L189.234 62.9179ZM179.998 0.937196H189.463L193.203 20.8596H179.998V0.937196ZM204.729 0.937196V20.8596H195.645L195.569 0.937196H204.729Z" fill="white"/>
<path d="M210.723 45.3618H219.578V56.2771H210.723V45.3618ZM210.723 8.72294H219.578V19.6383H210.723V8.72294Z" fill="white"/>
<path d="M236.153 62.9179H225.543V23.5311H236.153V62.9179ZM225.543 0.937196H236.153V20.8596H225.543V0.937196Z" fill="white"/>
<path d="M250.96 62.9179H241.495V23.2258H256.761L257.753 30.6299H258.287L259.203 23.2258H274.546V62.9179H265.081L265.463 26.279H264.852L260.806 62.9179H255.234L251.189 26.279H250.578L250.96 62.9179ZM274.546 0.937196V20.8596H259.509L262.18 0.937196H274.546ZM241.495 0.937196H253.86L256.456 20.8596H241.495V0.937196Z" fill="white"/>
<path d="M291.41 32.8435C292.478 32.8435 293.14 32.6399 293.394 32.2329C293.7 31.8258 293.852 30.7826 293.852 29.1033V23.2258H304.386V28.34C304.386 33.8867 303.648 37.3979 302.172 38.8736C300.747 40.2985 297.669 41.0109 292.936 41.0109H290.494V62.9179H279.884V23.2258H290.494V32.8435H291.41ZM279.884 0.937196H292.86C297.643 0.937196 300.773 1.67506 302.249 3.15079C303.673 4.57563 304.386 8.03597 304.386 13.5318V20.6306H293.852V12.9211C293.852 11.0892 293.674 9.99513 293.318 9.63892C293.013 9.23182 292.326 9.02827 291.257 9.02827H290.494V20.6306H279.884V0.937196Z" fill="white"/>
<path d="M310.787 61.2386C309.362 59.8137 308.65 56.3788 308.65 50.9339V23.5311H319.183V52.4605C319.183 54.1907 319.769 55.0558 320.939 55.0558C321.55 55.0558 321.957 54.8777 322.16 54.5215C322.415 54.1144 322.542 53.4274 322.542 52.4605V23.5311H333.152V50.9339C333.152 56.328 332.414 59.7629 330.938 61.2386C329.463 62.5617 326.155 63.2232 321.015 63.2232C315.672 63.2232 312.263 62.5617 310.787 61.2386ZM319.183 11.4709V20.8596H308.65V12.9211C308.65 7.42532 309.362 3.99043 310.787 2.61648C312.212 1.24252 315.57 0.555542 320.863 0.555542C326.206 0.555542 329.59 1.26796 331.015 2.69281C332.439 4.11765 333.152 7.52709 333.152 12.9211V20.8596H322.542V11.4709C322.542 9.6898 321.957 8.79927 320.786 8.79927C319.718 8.79927 319.183 9.6898 319.183 11.4709Z" fill="white"/>
<path d="M342.452 31.4695C340.925 30.5536 339.78 29.5104 339.017 28.34C338.254 27.1696 337.796 25.5157 337.643 23.3785H348.787C348.94 23.6838 349.169 23.9637 349.474 24.2181C349.83 24.4725 350.237 24.727 350.695 24.9814L357.184 28.7216C358.965 29.7394 360.237 30.9352 361 32.3092C361.763 33.6831 362.145 35.6169 362.145 38.1103V51.0102C362.145 56.557 361.407 59.9918 359.932 61.3149C358.507 62.5871 355.148 63.2232 349.856 63.2232C344.665 63.2232 341.332 62.5617 339.857 61.2386C338.381 59.7629 337.643 56.3534 337.643 51.0102V37.347H348.329V52.4605C348.329 54.2416 348.914 55.1321 350.085 55.1321C351.103 55.1321 351.611 54.2416 351.611 52.4605V39.3316C351.611 38.2121 351.459 37.4234 351.153 36.9654C350.848 36.5074 350.212 35.9985 349.245 35.4387L342.452 31.4695ZM362.145 12.9211V20.8596H351.611V11.3945C351.611 9.66436 351.026 8.79927 349.856 8.79927C349.296 8.79927 348.889 9.00282 348.635 9.40992C348.431 9.76613 348.329 10.4277 348.329 11.3945V20.8596H337.643V12.9211C337.643 7.57798 338.355 4.19398 339.78 2.76914C341.256 1.29341 344.64 0.555542 349.932 0.555542C355.123 0.555542 358.456 1.24252 359.932 2.61648C361.407 3.99043 362.145 7.42532 362.145 12.9211Z" fill="white"/>
<path d="M371.523 31.4695C369.996 30.5536 368.851 29.5104 368.088 28.34C367.325 27.1696 366.867 25.5157 366.714 23.3785H377.859C378.011 23.6838 378.24 23.9637 378.546 24.2181C378.902 24.4725 379.309 24.727 379.767 24.9814L386.255 28.7216C388.036 29.7394 389.308 30.9352 390.071 32.3092C390.835 33.6831 391.216 35.6169 391.216 38.1103V51.0102C391.216 56.557 390.479 59.9918 389.003 61.3149C387.578 62.5871 384.219 63.2232 378.927 63.2232C373.737 63.2232 370.404 62.5617 368.928 61.2386C367.452 59.7629 366.714 56.3534 366.714 51.0102V37.347H377.401V52.4605C377.401 54.2416 377.986 55.1321 379.156 55.1321C380.174 55.1321 380.683 54.2416 380.683 52.4605V39.3316C380.683 38.2121 380.53 37.4234 380.225 36.9654C379.919 36.5074 379.283 35.9985 378.316 35.4387L371.523 31.4695ZM391.216 12.9211V20.8596H380.683V11.3945C380.683 9.66436 380.098 8.79927 378.927 8.79927C378.367 8.79927 377.96 9.00282 377.706 9.40992C377.502 9.76613 377.401 10.4277 377.401 11.3945V20.8596H366.714V12.9211C366.714 7.57798 367.427 4.19398 368.851 2.76914C370.327 1.29341 373.711 0.555542 379.003 0.555542C384.194 0.555542 387.527 1.24252 389.003 2.61648C390.479 3.99043 391.216 7.42532 391.216 12.9211Z" fill="white"/>
<path d="M406.854 62.9179H396.244V23.5311H406.854V62.9179ZM396.244 0.937196H406.854V20.8596H396.244V0.937196Z" fill="white"/>
<path d="M423.721 25.1341C424.994 25.1341 425.757 24.5998 426.011 23.5311H436.469C436.214 25.1086 435.731 26.3554 435.018 27.2713C434.306 28.1364 433.314 28.8488 432.042 29.4086C433.772 30.1719 434.968 31.2405 435.629 32.6145C436.342 33.9885 436.698 36.1257 436.698 39.0263V50.3996C436.698 55.7936 435.884 59.2285 434.255 60.7043C432.627 62.18 429.294 62.9179 424.256 62.9179H412.195V23.5311H422.806V25.0577C422.907 25.0577 423.06 25.0832 423.263 25.1341C423.467 25.1341 423.62 25.1341 423.721 25.1341ZM412.195 0.937196H425.248C429.675 0.937196 432.703 1.7005 434.331 3.22712C435.909 4.65197 436.698 7.55254 436.698 11.9288V20.6306H426.164V11.6235C426.164 9.89335 425.426 9.02827 423.95 9.02827H422.806V20.6306H412.195V0.937196ZM422.806 34.1411V54.7505C422.958 54.8013 423.289 54.8268 423.798 54.8268C424.663 54.8268 425.274 54.6232 425.63 54.2161C425.986 53.809 426.164 53.0966 426.164 52.0789V36.7364C426.164 35.7695 425.986 35.0825 425.63 34.6754C425.274 34.2683 424.637 34.0648 423.721 34.0648C423.62 34.0648 423.467 34.0902 423.263 34.1411C423.06 34.1411 422.907 34.1411 422.806 34.1411Z" fill="white"/>
<path d="M458.809 62.9179H441.863V23.3785H452.473V54.7505H458.809V62.9179ZM441.863 0.937196H452.473V20.8596H441.863V0.937196Z" fill="white"/>
<path d="M479.531 62.9179H462.586V23.3021H473.196V24.8288H479.531V32.9962H473.196V54.7505H479.531V62.9179ZM462.586 0.937196H479.531V9.02827H473.196V20.8596H462.586V0.937196Z" fill="white"/>
</svg>
