<?xml version="1.0" encoding="UTF-8"?>
<svg version="1.1" xmlns="http://www.w3.org/2000/svg" width="1620" height="174">
<path d="M0 0 C0.68017685 0.34027725 1.3603537 0.6805545 2.06114197 1.03114319 C2.76872147 1.39783615 3.47630096 1.76452911 4.20532227 2.14233398 C5.32246361 2.70621071 5.32246361 2.70621071 6.46217346 3.28147888 C8.82025684 4.4744208 11.1709653 5.68113586 13.52172852 6.88842773 C15.1273799 7.70380391 16.73349547 8.51826668 18.34008789 9.33178711 C22.26025015 11.31930806 26.17386311 13.31920522 30.08422852 15.32592773 C29.08422852 18.32592773 29.08422852 18.32592773 26.93092251 19.71020031 C25.9731796 20.18676728 25.01543669 20.66333426 24.02867126 21.15434265 C22.38584923 21.98090866 22.38584923 21.98090866 20.70983887 22.82417297 C19.4856869 23.42740067 18.26144052 24.03043683 17.03710938 24.63330078 C15.7557606 25.27327024 14.47485118 25.91412002 13.1943512 26.55578613 C9.71134093 28.29801024 6.22228961 30.02780977 2.73205256 31.75550056 C-0.91236827 33.56211107 -4.55114996 35.38000721 -8.1905365 37.19673157 C-15.08555893 40.63646423 -21.98561752 44.06596645 -28.88752788 47.49185354 C-36.74380681 51.39207547 -44.59442777 55.30362081 -52.44458592 59.21614397 C-68.59536924 67.26538536 -84.75322931 75.30032595 -100.91577148 83.32592773 C-98.43535433 85.25454984 -96.01179002 86.90586332 -93.2102356 88.3258667 C-92.48979065 88.69324448 -91.7693457 89.06062225 -91.02706909 89.43913269 C-90.24671295 89.83199966 -89.46635681 90.22486664 -88.66235352 90.62963867 C-87.8326001 91.05108658 -87.00284668 91.47253448 -86.14794922 91.90675354 C-83.40884527 93.29597376 -80.6665927 94.67880975 -77.92358398 96.06030273 C-76.98594082 96.53319984 -76.04829765 97.00609695 -75.08224106 97.49332428 C-70.12403514 99.99325507 -65.1632432 102.48796995 -60.20043945 104.97875977 C-55.0733593 107.55338905 -49.95589447 110.14655996 -44.84033394 112.74398422 C-40.90455961 114.73798589 -36.96176622 116.71778338 -33.01693344 118.69379425 C-31.12679496 119.64373866 -29.23936568 120.5990936 -27.35474014 121.55992889 C-24.71978041 122.90170124 -22.07548829 124.22299959 -19.42797852 125.53979492 C-18.65167084 125.94075882 -17.87536316 126.34172272 -17.07553101 126.75483704 C-12.59794886 128.95080732 -9.85345836 129.95603549 -4.91577148 128.32592773 C-1.93278174 127.07406037 0.94410775 125.65406785 3.82763672 124.18920898 C4.68522079 123.76151215 5.54280487 123.33381531 6.42637634 122.89315796 C9.2498338 121.48258169 12.06741955 120.0606826 14.88500977 118.63842773 C16.84669934 117.65512081 18.80871479 116.67246377 20.77104187 115.69042969 C24.87633108 113.63396884 28.97898206 111.57237133 33.07958984 109.5065918 C38.34683136 106.8531318 43.61838273 104.20838223 48.89164448 101.56690979 C53.91168776 99.05191311 58.92973193 96.53294052 63.94750977 94.01342773 C64.91016565 93.53040192 65.87282154 93.0473761 66.86464882 92.54971313 C69.5734692 91.18954149 72.28086853 89.82658659 74.98779297 88.46264648 C75.79763641 88.05638031 76.60747986 87.65011414 77.44186401 87.23153687 C80.99405353 85.61938406 80.99405353 85.61938406 84.08422852 83.32592773 C80.1999832 81.28222262 76.30021562 79.27010261 72.39672852 77.26342773 C71.29393555 76.68270508 70.19114258 76.10198242 69.05493164 75.50366211 C67.98823242 74.9590332 66.9215332 74.4144043 65.82250977 73.85327148 C64.8432251 73.34530029 63.86394043 72.8373291 62.85498047 72.31396484 C58.71031537 70.83599677 56.12261857 71.86140699 52.16957092 73.62979126 C51.09734787 74.18129852 50.02512482 74.73280579 48.92041016 75.30102539 C48.32459641 75.6051384 47.72878265 75.9092514 47.11491394 76.22257996 C45.82758 76.88027369 44.541591 77.5406053 43.25682259 78.20329666 C41.22104559 79.25201325 39.18072671 80.29132762 37.13877869 81.32797241 C31.3358004 84.27518613 25.53855454 87.23336882 19.75146484 90.21166992 C16.20588542 92.03555563 12.65264209 93.84368027 9.09408379 95.64210129 C7.74230634 96.32913059 6.39353261 97.02210402 5.04792976 97.72114944 C3.1649213 98.69882692 1.27279663 99.65615195 -0.62255859 100.60961914 C-1.69557724 101.15953522 -2.76859589 101.70945129 -3.87413025 102.27603149 C-8.0381273 103.71333606 -10.88156479 103.0999036 -14.92807007 101.56028748 C-15.51875275 101.26050491 -16.10943542 100.96072235 -16.71801758 100.65185547 C-17.39826996 100.31157822 -18.07852234 99.97130096 -18.77938843 99.62071228 C-19.49212921 99.25401932 -20.20487 98.88732635 -20.93920898 98.50952148 C-21.68538483 98.13360367 -22.43156067 97.75768585 -23.2003479 97.37037659 C-25.56770604 96.17555985 -27.9292348 94.96970279 -30.29077148 93.76342773 C-31.90107566 92.94823756 -33.51174912 92.13377643 -35.12280273 91.32006836 C-39.05811746 89.33043582 -42.98824465 87.33088677 -46.91577148 85.32592773 C-46.91577148 84.33592773 -46.91577148 83.34592773 -46.91577148 82.32592773 C-33.45076856 75.51167334 -19.97776635 68.71344823 -6.49508381 61.93424129 C-0.23504964 58.78617536 6.02226235 55.63291116 12.2734375 52.46728516 C18.30357262 49.41361337 24.34088991 46.37461472 30.38291359 43.34451485 C32.68949948 42.18474346 34.99361084 41.02003736 37.29520226 39.85038567 C40.51367726 38.215827 43.74041964 36.59886738 46.96972656 34.98583984 C47.92422699 34.49600616 48.87872742 34.00617249 49.8621521 33.50149536 C50.74409744 33.06533401 51.62604279 32.62917267 52.53471375 32.17979431 C53.29703654 31.79540664 54.05935934 31.41101896 54.84478283 31.01498318 C59.84379971 29.47683478 64.106648 32.15377186 68.52685547 34.37695312 C69.15181412 34.68921341 69.77677277 35.00147369 70.42066956 35.32319641 C72.47418099 36.35099247 74.52331634 37.38720934 76.57250977 38.42358398 C77.99999652 39.1401266 79.42775012 39.85613785 80.85575867 40.57164001 C84.60502692 42.45198853 88.35063462 44.33951774 92.09552002 46.22857666 C96.59408314 48.49593456 101.09715189 50.75432827 105.59946442 53.01422882 C112.43119125 56.44461504 119.25710366 59.8863223 126.08422852 63.32592773 C126.08422852 76.85592773 126.08422852 90.38592773 126.08422852 104.32592773 C109.00400593 112.96763053 91.91645912 121.59429424 74.81492519 130.19373417 C66.87458011 134.18710737 58.93773498 138.1871595 51.00878906 142.203125 C44.0976795 145.70354078 37.18032879 149.19124182 30.25519806 152.66384119 C26.58877629 154.50291716 22.92578578 156.34819065 19.27020073 158.20872688 C15.8281645 159.96032477 12.37802331 161.69477476 8.92097282 163.41654015 C7.65487075 164.05082756 6.39183333 164.69127616 5.13222122 165.33835602 C3.40900957 166.2224249 1.67334827 167.08209957 -0.0627594 167.94056702 C-1.51320066 168.67200975 -1.51320066 168.67200975 -2.99294376 169.4182291 C-8.73744105 171.2022112 -13.50868649 169.34265291 -18.69285583 166.73802185 C-19.79631851 166.18972717 -20.89978119 165.6414325 -22.03668213 165.07652283 C-23.23923021 164.46640321 -24.44168061 163.85609102 -25.64404297 163.24560547 C-26.92541743 162.60421236 -28.20723403 161.96370193 -29.48945618 161.32400513 C-32.95627576 159.59131061 -36.4168034 157.84638045 -39.87631106 156.09914279 C-43.49752658 154.27287357 -47.1244349 152.4579814 -50.75074768 150.64186096 C-57.61108884 147.20392994 -64.46626919 143.75583718 -71.31964213 140.30404001 C-79.12463714 136.37356864 -86.93533561 132.45449642 -94.74652755 128.53635871 C-110.80931662 120.47885493 -126.86412768 112.40561421 -142.91577148 104.32592773 C-142.91577148 90.79592773 -142.91577148 77.26592773 -142.91577148 63.32592773 C-125.8355489 54.68422494 -108.74800209 46.05756123 -91.64646816 37.4581213 C-83.70612308 33.4647481 -75.76927795 29.46469597 -67.84033203 25.44873047 C-60.92922246 21.94831469 -54.01187176 18.46061365 -47.08674103 14.98801428 C-43.42031925 13.14893831 -39.75732875 11.30366482 -36.1017437 9.44312859 C-32.65970747 7.6915307 -29.20956628 5.95708071 -25.75251579 4.23531532 C-24.48641372 3.60102791 -23.2233763 2.9605793 -21.96376419 2.31349945 C-20.24055254 1.42943057 -18.50489124 0.5697559 -16.76878357 -0.28871155 C-15.31834231 -1.02015428 -15.31834231 -1.02015428 -13.83859921 -1.76637363 C-9.01249379 -3.26514458 -4.44323347 -2.26353403 0 0 Z " fill="#FFFFFF" transform="translate(142.915771484375,2.674072265625)"/>
<path d="M0 0 C3.48336903 2.86187585 6.78188374 5.84366259 10 9 C10.62519531 9.60070312 11.25039063 10.20140625 11.89453125 10.8203125 C20.33105884 19.61867761 28 33.66263618 28 46 C22.85923718 46.27314003 17.7227354 46.4720199 12.57641602 46.60424805 C10.82892283 46.65937758 9.08193291 46.73431329 7.33618164 46.82983398 C-7.21121824 47.60552939 -7.21121824 47.60552939 -11.63574219 43.63427734 C-13.4076029 40.81956872 -14.69929963 38.05359418 -16 35 C-22.36051227 26.59576003 -32.85324961 21.23950244 -43 19 C-57.77844232 17.63145466 -70.85070437 18.85937428 -83 28 C-83.5259375 28.54527344 -84.051875 29.09054688 -84.59375 29.65234375 C-86 31 -86 31 -88 31 C-88.27070313 31.56847656 -88.54140625 32.13695312 -88.8203125 32.72265625 C-90.03761757 35.07261934 -91.43164599 37.22011936 -92.875 39.4375 C-100.99102432 53.18302157 -101.9636324 68.34601597 -99.33984375 83.91796875 C-95.9716851 96.12207608 -89.06877375 106.25753706 -78.12890625 112.6875 C-64.66081518 119.54518162 -50.7435416 120.40122747 -36.2890625 116.21484375 C-24.35969224 111.86833818 -15.68260876 105.36521751 -10 94 C-25.51 93.67 -41.02 93.34 -57 93 C-57 83.43 -57 73.86 -57 64 C-27.96 64 1.08 64 31 64 C29.64036185 87.1138486 25.99463741 106.87678223 11 125 C10.33484375 125.83917969 9.6696875 126.67835938 8.984375 127.54296875 C-3.82043836 142.83760693 -22.12928927 152.14034943 -42 154 C-66.80293976 155.52969673 -88.13223909 151.22081963 -108 136 C-108.65226562 135.53207031 -109.30453125 135.06414062 -109.9765625 134.58203125 C-125.277561 122.79808691 -134.19618386 103.290144 -137.5859375 84.8046875 C-140.54879691 57.57992272 -136.06118819 33.08688896 -118.91015625 11.3515625 C-90.08745578 -22.52683769 -34.90568352 -27.15989884 0 0 Z " fill="#FFFFFF" transform="translate(482,18)"/>
<path d="M0 0 C4.1646378 3.09832957 6.86114253 6.27528279 9.5625 10.6875 C10.531875 9.841875 11.50125 8.99625 12.5 8.125 C13.85313755 6.97795154 15.20738369 5.83221008 16.5625 4.6875 C17.59310547 3.78837891 17.59310547 3.78837891 18.64453125 2.87109375 C24.19241969 -1.75714471 29.6464683 -4.28670174 36.5625 -6.3125 C37.46548828 -6.60060547 37.46548828 -6.60060547 38.38671875 -6.89453125 C51.48284627 -9.4103044 64.25154427 -7.12902115 75.3125 0.25 C85.38308981 8.09721284 90.83544204 18.3666517 93.5625 30.6875 C93.65251981 33.6621173 93.68866703 36.61262201 93.67602539 39.58691406 C93.67617142 40.48482666 93.67631744 41.38273926 93.6764679 42.30786133 C93.67577176 45.27297387 93.66799329 48.23802344 93.66015625 51.203125 C93.65829101 53.26007045 93.65686761 55.31701635 93.65586853 57.3739624 C93.6520517 62.78594185 93.64222851 68.19789444 93.63116455 73.60986328 C93.62093252 79.13313432 93.61636707 84.65640971 93.61132812 90.1796875 C93.60060551 101.0156387 93.58301543 111.85156291 93.5625 122.6875 C82.0125 122.6875 70.4625 122.6875 58.5625 122.6875 C58.54062622 118.98672241 58.54062622 118.98672241 58.51831055 115.21118164 C58.46785189 107.03674365 58.40123709 98.8624939 58.32678509 90.688241 C58.28216039 85.73480435 58.24288698 80.78144844 58.21606445 75.82788086 C58.18995251 71.0425858 58.14949467 66.2576028 58.09931374 61.47250175 C58.08269825 59.65181819 58.07115099 57.83108071 58.06488609 56.01033211 C58.0551868 53.44934921 58.02705939 50.88915518 57.99487305 48.32836914 C57.99630814 47.58461533 57.99774323 46.84086151 57.9992218 46.0745697 C57.89634735 40.24295141 57.11812118 33.56446658 53.11081982 29.05328465 C47.68380664 24.45181948 43.76539737 24.3339269 36.828125 24.41796875 C31.42288164 24.8640953 28.6411876 26.45895352 24.8828125 30.48828125 C18.09263527 38.85416947 17.48744041 48.69226752 17.35717773 59.11328125 C17.34727814 59.80695297 17.33737854 60.50062469 17.32717896 61.21531677 C17.29593784 63.47684478 17.27095681 65.73839369 17.24609375 68 C17.2254918 69.58040877 17.20449454 71.16081242 17.18312073 72.74121094 C17.12823446 76.87733798 17.07867937 81.01351196 17.03027344 85.14971924 C16.97092215 90.12505666 16.90488035 95.10030933 16.83997345 100.07557678 C16.74238548 107.61283225 16.65324172 115.15014501 16.5625 122.6875 C5.3425 122.6875 -5.8775 122.6875 -17.4375 122.6875 C-17.45208252 120.2861377 -17.46666504 117.88477539 -17.48168945 115.41064453 C-17.53218387 107.4477544 -17.59880467 99.48505677 -17.67321491 91.52235603 C-17.71780958 86.69786395 -17.75708937 81.8734542 -17.78393555 77.04882812 C-17.81007776 72.38671805 -17.85055632 67.72492665 -17.90068626 63.06301498 C-17.91728148 61.2906073 -17.92884125 59.51814459 -17.93511391 57.74567032 C-17.79942344 42.55553175 -17.79942344 42.55553175 -23.375 28.6875 C-27.1052599 25.07027827 -30.09357066 24.39485788 -35.25 24.375 C-42.47181687 24.54152248 -47.1007388 26.01518338 -52.1875 31.25 C-60.086655 39.83202588 -58.90873271 52.64985778 -58.94921875 63.5078125 C-58.96609094 65.21989203 -58.98424455 66.93195937 -59.00361633 68.64401245 C-59.05084695 73.11877632 -59.0808297 77.59349073 -59.10705566 82.06842041 C-59.14227588 87.45435851 -59.19921097 92.84010677 -59.25244904 98.22589111 C-59.33064661 106.37973563 -59.38149083 114.53333706 -59.4375 122.6875 C-70.9875 122.6875 -82.5375 122.6875 -94.4375 122.6875 C-94.4375 80.7775 -94.4375 38.8675 -94.4375 -4.3125 C-86.1875 -4.3125 -77.9375 -4.3125 -69.4375 -4.3125 C-67.4575 0.3075 -65.4775 4.9275 -63.4375 9.6875 C-62.1175 8.0375 -60.7975 6.3875 -59.4375 4.6875 C-42.19351996 -9.44993096 -18.99159681 -12.40039557 0 0 Z " fill="#FFFFFF" transform="translate(1526.4375,46.3125)"/>
<path d="M0 0 C91.60531309 0 91.60531309 0 110.25 17.05859375 C120.03307225 27.15665128 124.40916786 40.47218412 124.3125 54.3125 C124.30512817 55.5653479 124.30512817 55.5653479 124.29760742 56.84350586 C124.17596161 63.27201929 123.40864464 68.99301579 121 75 C120.67128906 75.8353125 120.34257813 76.670625 120.00390625 77.53125 C114.97198503 88.81389689 106.05129766 96.29913489 96 103 C104.60017079 118.13137766 113.24407844 133.23086554 122.1328125 148.1953125 C122.59848633 148.97938477 123.06416016 149.76345703 123.54394531 150.57128906 C124.58539377 152.30843347 125.6381249 154.03883358 126.69824219 155.76464844 C127.24899414 156.66473633 127.79974609 157.56482422 128.3671875 158.4921875 C128.8710498 159.30800293 129.37491211 160.12381836 129.89404297 160.96435547 C131 163 131 163 131 165 C117.47 165 103.94 165 90 165 C88.35 162.1125 86.7 159.225 85 156.25 C84.1493396 154.76161621 84.1493396 154.76161621 83.28149414 153.24316406 C80.46386185 148.3130798 77.64718774 143.38245181 74.83261108 138.45062256 C73.39008425 135.92309093 71.94713534 133.39580038 70.50415039 130.86853027 C69.79627277 129.62848876 69.08858867 128.38833676 68.38110352 127.14807129 C67.37826829 125.39009476 66.3746934 123.63254024 65.37109375 121.875 C64.79286865 120.86179687 64.21464355 119.84859375 63.61889648 118.8046875 C62.54084723 116.9370009 61.43072015 115.08746236 60.28930664 113.2578125 C59 111 59 111 59 109 C51.74 109 44.48 109 37 109 C37 127.48 37 145.96 37 165 C24.79 165 12.58 165 0 165 C0 110.55 0 56.1 0 0 Z M37 34 C37 47.53 37 61.06 37 75 C42.424375 75.0825 47.84875 75.165 53.4375 75.25 C55.13060303 75.28641602 56.82370605 75.32283203 58.56811523 75.36035156 C67.52736351 75.47402468 75.03760754 75.18027626 82.15625 69.18359375 C82.82140625 68.31927734 82.82140625 68.31927734 83.5 67.4375 C83.9640625 66.85871094 84.428125 66.27992187 84.90625 65.68359375 C88.25629174 60.52692236 87.69991234 53.86431405 87 48 C84.63695069 41.9397813 80.92905666 38.26314159 75.02734375 35.65625 C70.23029233 34.10344723 65.76134762 33.88164054 60.73046875 33.90234375 C59.48418701 33.90484131 58.23790527 33.90733887 56.95385742 33.90991211 C55.38095947 33.91901611 53.80806152 33.92812012 52.1875 33.9375 C47.175625 33.958125 42.16375 33.97875 37 34 Z " fill="#FFFFFF" transform="translate(978,4)"/>
<path d="M0 0 C11.88 0 23.76 0 36 0 C44.23306404 23.92808381 52.35350866 47.87733204 60 72 C68.30375374 54.33154014 76.22037313 36.50663374 84.03076172 18.61547852 C84.60156464 17.30896584 84.60156464 17.30896584 85.18389893 15.97605896 C85.9022205 14.33115334 86.6195221 12.68580179 87.33563232 11.03993225 C87.65751526 10.30246262 87.97939819 9.56499298 88.31103516 8.80517578 C88.59016754 8.16411896 88.86929993 7.52306213 89.15689087 6.86257935 C90.05251817 4.88397794 91.02871098 2.94257804 92 1 C95.63 1 99.26 1 103 1 C108.57650623 11.96975134 113.85537591 23.0434424 118.9375 34.25 C119.63650659 35.78565974 120.33572739 37.32122199 121.03515625 38.85668945 C126.05707249 49.88924869 131.05138868 60.93435523 136 72 C136.30067383 71.09797852 136.60134766 70.19595703 136.91113281 69.26660156 C144.60742188 46.17773437 152.30371094 23.08886719 160 0 C171.55 0 183.1 0 195 0 C192.75021842 11.24890789 192.75021842 11.24890789 191.25097656 15.68530273 C190.91542252 16.68847031 190.57986847 17.69163788 190.23414612 18.72520447 C189.87328415 19.78397293 189.51242218 20.84274139 189.140625 21.93359375 C188.56881752 23.63649315 188.56881752 23.63649315 187.98545837 25.37379456 C186.74558175 29.06349577 185.4977057 32.7504398 184.25 36.4375 C182.73566733 40.93357539 181.22705762 45.43157602 179.7180233 49.92943192 C179.06566082 51.87331494 178.41258331 53.81695681 177.75947571 55.7605896 C173.25450566 69.17734955 168.88200346 82.63629948 164.54199219 96.10717773 C161.19601497 106.46938201 157.66463639 116.74559145 154 127 C144.76 127 135.52 127 126 127 C119.2528616 113.5057232 119.2528616 113.5057232 116.6328125 107.4609375 C116.35179687 106.81540924 116.07078125 106.16988098 115.78125 105.50479126 C114.89292795 103.46277508 114.00895277 101.41891073 113.125 99.375 C112.20179802 97.25040434 111.27742942 95.12631875 110.35299683 93.0022583 C109.74677257 91.60914894 109.14091219 90.21588117 108.53543091 88.82244873 C106.09270877 83.20272094 103.62007951 77.59669123 101.125 72 C100.79773926 71.26571777 100.47047852 70.53143555 100.13330078 69.77490234 C99.42305372 68.18288732 98.71169521 66.59136817 98 65 C96.19985264 67.70022105 94.98763315 70.14423749 93.70922852 73.1105957 C93.25858536 74.15210281 92.8079422 75.19360992 92.34364319 76.26667786 C91.86028 77.39168198 91.37691681 78.5166861 90.87890625 79.67578125 C90.37834213 80.83369675 89.87777802 81.99161224 89.36204529 83.18461609 C88.03118794 86.26388642 86.70269513 89.34415235 85.37561035 92.42504883 C83.51077034 96.75385174 81.64331715 101.08152165 79.77366638 105.4082489 C78.77909203 107.71022234 77.78623562 110.01293896 76.79530334 112.31648254 C76.34150803 113.36744614 75.88771271 114.41840973 75.42016602 115.5012207 C75.02426773 116.42038773 74.62836945 117.33955475 74.22047424 118.28657532 C72.89663697 121.22980231 71.44326923 124.11346155 70 127 C60.76 127 51.52 127 42 127 C37.5004734 115.75118349 37.5004734 115.75118349 35.67260742 110.15307617 C35.47151084 109.54032207 35.27041426 108.92756798 35.06322384 108.29624557 C34.4076063 106.29613108 33.7565476 104.29456476 33.10546875 102.29296875 C32.63621065 100.85891048 32.16662876 99.42495812 31.69674683 97.99110413 C30.70343343 94.95815457 29.71200749 91.92459795 28.72219849 88.89050293 C26.40462237 81.78645519 24.07863382 74.68516131 21.75252342 67.58390427 C21.234893 66.00354403 20.71738751 64.42314286 20.20000648 62.84270096 C16.87901178 52.69893913 13.53560572 42.56330294 10.1484375 32.44140625 C9.79125137 31.37387619 9.43406525 30.30634613 9.0660553 29.20646667 C7.43777952 24.34458594 5.80459256 19.48439733 4.16674805 14.62573242 C3.60201352 12.94320912 3.03731379 11.26067414 2.47265625 9.578125 C2.21757294 8.8263649 1.96248962 8.0746048 1.69967651 7.30006409 C0 2.22611298 0 2.22611298 0 0 Z " fill="#FFFFFF" transform="translate(763,42)"/>
<path d="M0 0 C12.90904811 11.96838879 19.2092328 27.54923472 20.16015625 44.99609375 C20.74876385 63.34692356 15.96019551 80.67251856 3.375 94.375 C-9.9570714 108.20421488 -26.76398288 115.57641329 -45.92382812 116.22290039 C-65.02749875 116.41455869 -83.94768635 111.23909455 -98.125 97.75 C-111.70518214 83.78032889 -117.69888839 65.64841036 -117.47265625 46.42675781 C-116.89802726 28.66618561 -110.57739856 12.83956125 -97.9140625 0.3046875 C-70.17430451 -25.10399839 -28.01127891 -23.96145545 0 0 Z M-71.125 22.75 C-73.58431548 25.20404928 -75.39464354 27.74350565 -77.125 30.75 C-77.5375 31.46671875 -77.95 32.1834375 -78.375 32.921875 C-82.73291535 41.94033871 -82.5997205 53.23213841 -79.625 62.6875 C-75.87164197 71.4147136 -69.97547595 76.9523295 -61.421875 80.875 C-53.44935054 83.91215218 -43.86588205 84.11988654 -35.8125 81.25 C-26.57396456 76.90424155 -20.73303809 70.2211 -17.125 60.75 C-14.30110355 52.26009196 -15.09108235 40.82877199 -18.9375 32.85546875 C-19.5253125 31.81326172 -19.5253125 31.81326172 -20.125 30.75 C-20.475625 30.10675781 -20.82625 29.46351562 -21.1875 28.80078125 C-25.22174418 22.343189 -32.00144935 18.14939954 -39.125 15.75 C-51.47172398 13.76684744 -61.07385976 15.04469658 -71.125 22.75 Z " fill="#FFFFFF" transform="translate(1236.125,56.25)"/>
<path d="M0 0 C14.18589003 11.21491999 23.13620165 25.30880934 25.81640625 43.2265625 C27.26260637 61.82227153 25.515694 80.6719991 13.16015625 95.56640625 C10.50769024 98.59076061 7.69252179 101.41512722 4.81640625 104.2265625 C4.25566406 104.81953125 3.69492188 105.4125 3.1171875 106.0234375 C-9.55964198 118.40081431 -28.33566433 121.74306462 -45.28369141 121.64892578 C-62.23571163 121.17999447 -77.35410054 115.4678786 -90.18359375 104.2265625 C-91.10591797 103.42798828 -91.10591797 103.42798828 -92.046875 102.61328125 C-105.45852531 90.15323363 -110.06364684 73.42924607 -111.3671875 55.734375 C-111.85868244 39.94871413 -107.06882318 24.49714077 -97.18359375 12.2265625 C-96.673125 11.54207031 -96.16265625 10.85757813 -95.63671875 10.15234375 C-73.47972385 -17.76327607 -27.80783421 -19.7728142 0 0 Z M-68.57421875 32.2265625 C-75.35605677 40.65447771 -75.9676309 50.83530953 -75.18359375 61.2265625 C-73.10820991 70.58357879 -68.58832674 78.06665316 -60.74609375 83.6015625 C-52.62378593 88.55025336 -44.55290125 89.18261429 -35.18359375 88.2265625 C-25.94755677 85.87098961 -19.18917504 81.1869634 -13.87890625 73.28515625 C-8.59761254 63.74413294 -8.1334419 52.93691621 -10.90234375 42.5234375 C-13.97680148 33.88315112 -18.84067994 28.20841442 -26.87109375 23.7890625 C-42.03143087 16.87912055 -57.13482349 20.48346648 -68.57421875 32.2265625 Z " fill="#FFFFFF" transform="translate(1382.18359375,50.7734375)"/>
<path d="M0 0 C17.94113992 -0.50755992 33.86033783 4.19437816 48.11328125 15.16015625 C49.12390625 15.88203125 50.13453125 16.60390625 51.17578125 17.34765625 C64.44768276 28.89007485 70.61769189 45.31708681 71.86328125 62.34765625 C72.90333394 80.97701481 68.1033791 97.67909233 56.11328125 112.16015625 C43.63060418 125.335303 27.88445685 133.64127978 9.53125 134.3984375 C-10.6942649 134.83247806 -28.41941555 131.25187495 -44.26171875 117.97265625 C-52.28127127 110.22042215 -58.55998085 100.82923993 -61.88671875 90.16015625 C-62.18320312 89.33128906 -62.4796875 88.50242187 -62.78515625 87.6484375 C-67.93868327 71.07677493 -65.96133952 51.68896677 -58.88671875 36.09765625 C-50.6871 20.56335744 -36.55666301 8.90128401 -19.9921875 3.15625 C-13.33214316 1.2280973 -6.89750709 0.38267631 0 0 Z M-22.26171875 44.41015625 C-28.62734473 52.65120745 -30.59499043 62.61978694 -29.6328125 72.86328125 C-28.22635064 81.1246608 -25.24188221 87.58001273 -18.88671875 93.16015625 C-18.16484375 93.84078125 -17.44296875 94.52140625 -16.69921875 95.22265625 C-7.59232437 101.4962946 1.85521425 102.5615252 12.69140625 100.72265625 C20.82153955 98.44849309 27.10781151 93.24518324 31.55078125 86.16015625 C36.54447473 76.91974836 37.53810942 67.50423703 35.53125 57.16015625 C32.89789344 48.69493698 27.15719541 41.46457151 19.67578125 36.66015625 C4.95920155 30.46370164 -11.04516299 32.45901498 -22.26171875 44.41015625 Z " fill="#FFFFFF" transform="translate(684.88671875,37.83984375)"/>
<path d="M0 0 C0 10.89 0 21.78 0 33 C-8.9375 33.375 -8.9375 33.375 -11.69506836 33.47802734 C-19.78367617 33.8625777 -27.67060179 34.53370155 -34 40 C-39.09293382 46.5835486 -40.13594993 52.21602118 -40.20532227 60.45239258 C-40.21522186 61.1846405 -40.22512146 61.91688843 -40.23532104 62.67132568 C-40.26677625 65.07902857 -40.29162989 67.48675116 -40.31640625 69.89453125 C-40.3369896 71.56890867 -40.35798643 73.24328105 -40.37937927 74.91764832 C-40.43445738 79.31521516 -40.48392929 83.71282779 -40.53222656 88.11047363 C-40.59139992 93.39193456 -40.65754912 98.67331219 -40.72252655 103.95470428 C-40.82035654 111.96975179 -40.90933529 119.98485381 -41 128 C-52.55 128 -64.1 128 -76 128 C-76 86.09 -76 44.18 -76 1 C-68.41 1 -60.82 1 -53 1 C-51.35 4.96 -49.7 8.92 -48 13 C-45.34391997 13 -44.89698678 12.12284556 -43 10.3125 C-30.26327253 -0.8420253 -15.99044751 -0.22521757 0 0 Z " fill="#FFFFFF" transform="translate(612,41)"/>
</svg>
